<svg version="1.1" id="Layer_1" xmlns="http://www.w3.org/2000/svg" xmlns:xlink="http://www.w3.org/1999/xlink" x="0px" y="0px"
	 width="100%" viewBox="0 0 128 128" enable-background="new 0 0 128 128" xml:space="preserve">
<path fill="#FFCA01" opacity="1.000000" stroke="none" 
	d="
M81.000000,129.000000 
	C70.645775,129.000000 60.291546,129.000000 49.801701,128.702179 
	C48.860859,127.938187 48.109798,127.282249 47.242203,127.034615 
	C36.030724,123.834663 26.215292,117.971870 18.368874,109.595085 
	C11.045223,101.776398 5.255990,92.677643 2.862999,81.874435 
	C2.772409,81.465469 1.644516,81.286270 1.000000,81.000000 
	C1.000000,70.645775 1.000000,60.291546 1.297835,49.801697 
	C2.061827,48.860859 2.717761,48.109806 2.965386,47.242214 
	C6.165324,36.030735 12.028143,26.215342 20.404881,18.368877 
	C28.223547,11.045156 37.322403,5.256081 48.125572,2.863003 
	C48.534542,2.772410 48.713734,1.644517 49.000000,1.000000 
	C59.354229,1.000000 69.708458,1.000000 80.199188,1.292067 
	C82.212570,2.400300 84.046295,3.340315 85.973557,4.011867 
	C95.996948,7.504490 104.862411,13.047877 111.995270,20.740120 
	C118.967278,28.258879 124.147705,37.114834 127.035301,47.138947 
	C127.250496,47.885963 128.324982,48.385448 129.000000,49.000000 
	C129.000000,59.354229 129.000000,69.708458 128.702164,80.198303 
	C127.938164,81.139137 127.282234,81.890198 127.034607,82.757790 
	C123.834679,93.969276 117.971886,103.784706 109.595116,111.631142 
	C101.776436,118.954811 92.677643,124.743988 81.874428,127.136993 
	C81.465462,127.227585 81.286263,128.355484 81.000000,129.000000 
z"/>
<path fill="#000000" opacity="1.000000" stroke="none" 
	d="
M129.000000,48.531342 
	C128.324982,48.385448 127.250496,47.885963 127.035301,47.138947 
	C124.147705,37.114834 118.967278,28.258879 111.995270,20.740120 
	C104.862411,13.047877 95.996948,7.504490 85.973557,4.011867 
	C84.046295,3.340315 82.212570,2.400300 80.667847,1.292067 
	C96.926735,1.000000 112.853462,1.000000 129.000000,1.000000 
	C129.000000,16.686876 129.000000,32.374779 129.000000,48.531342 
z"/>
<path fill="#000000" opacity="1.000000" stroke="none" 
	d="
M48.531342,1.000000 
	C48.713734,1.644517 48.534542,2.772410 48.125572,2.863003 
	C37.322403,5.256081 28.223547,11.045156 20.404881,18.368877 
	C12.028143,26.215342 6.165324,36.030735 2.965386,47.242214 
	C2.717761,48.109806 2.061827,48.860859 1.297835,49.333038 
	C1.000000,33.073269 1.000000,17.146536 1.000000,1.000000 
	C16.686876,1.000000 32.374779,1.000000 48.531342,1.000000 
z"/>
<path fill="#000000" opacity="1.000000" stroke="none" 
	d="
M1.000000,81.468658 
	C1.644516,81.286270 2.772409,81.465469 2.862999,81.874435 
	C5.255990,92.677643 11.045223,101.776398 18.368874,109.595085 
	C26.215292,117.971870 36.030724,123.834663 47.242203,127.034615 
	C48.109798,127.282249 48.860859,127.938187 49.333042,128.702179 
	C33.073265,129.000000 17.146532,129.000000 1.000000,129.000000 
	C1.000000,113.313126 1.000000,97.625221 1.000000,81.468658 
z"/>
<path fill="#000000" opacity="1.000000" stroke="none" 
	d="
M81.468658,129.000000 
	C81.286263,128.355484 81.465462,127.227585 81.874428,127.136993 
	C92.677643,124.743988 101.776436,118.954811 109.595116,111.631142 
	C117.971886,103.784706 123.834679,93.969276 127.034607,82.757790 
	C127.282234,81.890198 127.938164,81.139137 128.702164,80.666962 
	C129.000000,96.926735 129.000000,112.853462 129.000000,129.000000 
	C113.313126,129.000000 97.625221,129.000000 81.468658,129.000000 
z"/>
</svg>